#!OML:ASF H:\charlestonDancing\Project 1\Capture day 1\Session 1\femaleDancer.ASF
:FULLY-SPECIFIED
:DEGREES
253
root -8.97203 17.7254 2.24338 -94.6072 -87.6025 108.425
lowerback 22.6392 -3.98882 1.17075
upperback 6.0807 -5.28225 0.544594
thorax -5.96605 -2.73785 1.37271
lowerneck 6.83402 12.4614 12.0006
upperneck -9.96641 16.4806 -19.5603
head -1.29352 8.76757 -8.04673
rclavicle -4.84041e-014 5.92378e-014
rhumerus -42.7375 6.31364 -83.246
rradius 60.5725
rwrist 22.4396
rhand -35.5998 -38.9667
rfingers 7.12502
rthumb -8.72359 -68.7664
lclavicle -4.84041e-014 5.92378e-014
lhumerus 2.25801 -13.2386 71.3794
lradius 60.7533
lwrist -17.9924
lhand -30.3902 10.469
lfingers 7.12502
lthumb -3.69429 40.4167
rfemur -47.2194 -2.7451 22.2773
rtibia 56.8466
rfoot -7.58084 1.09039
rtoes -10.8358
lfemur -11.5705 7.65216 -28.4168
ltibia 35.6478
lfoot -14.4686 -3.10129
ltoes -25.1566
254
root -9.08263 17.753 2.23944 -94.7012 -87.6118 108.34
lowerback 22.1398 -3.96949 1.62719
upperback 5.97788 -5.16285 0.420827
thorax -5.87379 -2.67925 0.919581
lowerneck 6.33117 12.2414 11.874
upperneck -8.98272 16.2485 -19.1056
head -1.01994 8.59728 -7.81614
rclavicle -6.4605e-015 4.95968e-014
rhumerus -40.6802 7.26256 -83.9741
rradius 61.1342
rwrist 23.7192
rhand -35.0692 -39.2951
rfingers 7.12502
rthumb -8.21154 -69.1156
lclavicle -6.4605e-015 4.95968e-014
lhumerus -2.33039 -13.4201 74.1131
lradius 57.3552
lwrist -17.2992
lhand -29.8559 10.0839
lfingers 7.12502
lthumb -3.17831 40.04
rfemur -45.3001 -3.0799 22.7252
rtibia 54.7803
rfoot -7.61264 -0.428154
rtoes -18.3388
lfemur -12.4478 8.16883 -28.2532
ltibia 38.2954
lfoot -13.3305 -2.79431
ltoes -27.5327
255
root -9.1888 17.7393 2.22412 -93.1042 -87.5949 106.681
lowerback 21.5737 -3.87673 2.02465
upperback 5.86059 -4.96368 0.311396
thorax -5.75188 -2.58091 0.491493
lowerneck 5.61509 11.9738 11.7608
upperneck -7.88488 15.9454 -18.6383
head -0.687239 8.38023 -7.57029
rclavicle 1.44616e-014 1.25234e-014
rhumerus -38.5596 8.37367 -84.7196
rradius 62.2256
rwrist 22.8561
rhand -34.8495 -39.8434
rfingers 7.12502
rthumb -7.99951 -69.672
lclavicle 1.44616e-014 1.25234e-014
lhumerus -6.70598 -13.2717 76.7414
lradius 53.5136
lwrist -16.509
lhand -29.3294 10.2599
lfingers 7.12502
lthumb -2.66981 40.2229
rfemur -43.3146 -2.97191 22.7643
rtibia 52.8213
rfoot -9.32376 -1.20726
rtoes -18.6391
lfemur -14.0174 8.98185 -28.1125
ltibia 41.8886
lfoot -11.5108 -2.36703
ltoes -29.725
256
root -9.28839 17.704 2.19746 -87.1617 -87.6132 100.917
lowerback 20.7856 -3.67203 2.33536
upperback 5.65909 -4.63045 0.321797
thorax -5.58121 -2.41407 0.197199
lowerneck 4.76926 11.655 11.6115
upperneck -6.61783 15.5749 -18.1412
head -0.297943 8.12207 -7.30361
rclavicle -1.4387e-014 4.70871e-015
rhumerus -36.5531 9.20887 -85.0889
rradius 62.7418
rwrist 24.2006
rhand -36.6741 -38.8608
rfingers 7.12502
rthumb -9.7602 -68.6147
lclavicle -1.4387e-014 4.70871e-015
lhumerus -10.9273 -12.7475 79.3859
lradius 49.303
lwrist -15.736
lhand -28.9836 10.3491
lfingers 7.12502
lthumb -2.33591 40.3161
rfemur -41.8062 -2.83765 22.8209
rtibia 51.005
rfoot -11.5387 -1.71335
rtoes -19.7107
lfemur -16.4267 9.69187 -27.9515
ltibia 46.3233
lfoot -9.00336 -1.82042
ltoes -29.8076
257
root -9.38541 17.6546 2.17319 -74.1433 -87.6484 88.0642
lowerback 20.0055 -3.4543 2.73778
upperback 5.43213 -4.25671 0.452533
thorax -5.43046 -2.22738 -0.0233033
lowerneck 3.71936 11.3397 11.2975
upperneck -5.11934 15.2091 -17.4439
head 0.164786 7.85296 -6.93726
rclavicle -2.52457e-014 9.93923e-017
rhumerus -34.7285 10.1133 -85.2002
rradius 64.1284
rwrist 23.8922
rhand -36.6354 -39.1722
rfingers 7.12502
rthumb -9.72293 -68.9278
lclavicle -2.52457e-014 9.93923e-017
lhumerus -15.0096 -11.4877 81.9403
lradius 44.8947
lwrist -15.1748
lhand -28.5489 10.4449
lfingers 7.12502
lthumb -1.91604 40.416
rfemur -40.6027 -3.08627 22.9784
rtibia 49.5548
rfoot -13.3145 -2.16285
rtoes -17.8349
lfemur -19.2826 9.83465 -27.7197
ltibia 51.4149
lfoot -6.106 -0.799822
ltoes -29.7552
258
root -9.47704 17.5932 2.14881 -60.7622 -87.8409 74.5751
lowerback 19.5212 -3.14103 3.23238
upperback 5.30729 -3.74071 0.722582
thorax -5.30856 -1.97622 -0.163101
lowerneck 3.36999 10.7807 11.3868
upperneck -4.48365 14.4809 -17.6325
head 0.322965 7.4611 -7.00627
rclavicle -1.19271e-014 1.2921e-014
rhumerus -32.8546 11.0969 -84.9863
rradius 65.9921
rwrist 23.4311
rhand -36.7183 -39.3006
rfingers 7.12502
rthumb -9.80291 -69.0524
lclavicle -1.19271e-014 1.2921e-014
lhumerus -19.0183 -9.26353 84.0762
lradius 40.7259
lwrist -15.1579
lhand -28.0378 11.0831
lfingers 7.12502
lthumb -1.4224 41.0581
rfemur -39.4278 -3.35424 23.4796
rtibia 48.4649
rfoot -15.0489 -2.79914
rtoes -15.87
lfemur -22.1644 9.51358 -27.1399
ltibia 56.8567
lfoot -2.86851 0.620349
ltoes -27.4284
259
root -9.55641 17.5187 2.1275 -48.5462 -88.0887 61.8694
lowerback 19.4611 -2.72379 3.76148
upperback 5.32395 -3.08658 0.988043
thorax -5.24782 -1.66298 -0.339311
lowerneck 3.11451 10.2834 11.0246
upperneck -4.09749 13.8061 -17.206
head 0.317428 7.10062 -6.83472
rclavicle 2.48481e-014 -1.27222e-014
rhumerus -30.7897 11.9627 -84.566
rradius 68.2967
rwrist 23.0903
rhand -37.154 -39.5379
rfingers 7.12502
rthumb -10.2232 -69.2694
lclavicle 2.48481e-014 -1.27222e-014
lhumerus -23.0834 -6.26791 85.4923
lradius 37.1577
lwrist -15.5794
lhand -27.804 11.7346
lfingers 7.12502
lthumb -1.19658 41.711
rfemur -38.1686 -3.43149 24.0783
rtibia 47.7899
rfoot -17.2914 -3.67874
rtoes -13.8335
lfemur -24.8497 8.76563 -26.3742
ltibia 62.4578
lfoot 0.194131 2.14696
ltoes -21.5614
260
root -9.62496 17.4433 2.12478 -40.0786 -88.3965 52.3819
lowerback 19.9732 -2.25829 4.52813
upperback 5.53041 -2.32707 1.10964
thorax -5.2832 -1.30643 -0.81086
lowerneck 2.7977 9.78021 10.7748
upperneck -3.72914 13.1236 -16.8701
head 0.336089 6.73484 -6.70264
rclavicle 1.15295e-014 7.55382e-015
rhumerus -28.4006 12.5732 -83.9817
rradius 70.8339
rwrist 23.3576
rhand -37.9134 -40.3321
rfingers 7.12502
rthumb -10.9557 -70.0262
lclavicle 1.15295e-014 7.55382e-015
lhumerus -27.1225 -2.73337 85.9781
lradius 34.1187
lwrist -16.3643
lhand -27.2598 12.6006
lfingers 7.12502
lthumb -0.671052 42.5793
rfemur -36.5424 -3.43587 24.5813
rtibia 47.4255
rfoot -19.3516 -4.42183
rtoes -11.0843
lfemur -27.064 7.91855 -25.5872
ltibia 68.0579
lfoot 2.78383 3.2547
ltoes -15.9472
261
root -9.68123 17.373 2.13562 -30.1794 -89.0725 40.9823
lowerback 21.0379 -1.76378 5.52109
upperback 5.92483 -1.47293 1.22825
thorax -5.37684 -0.913526 -1.43495
lowerneck 2.73616 9.41249 10.6587
upperneck -3.66984 12.6163 -16.8637
head 0.284327 6.4776 -6.70479
rclavicle 1.11319e-014 1.74931e-014
rhumerus -25.5219 13.0566 -83.1199
rradius 73.3484
rwrist 24.6295
rhand -38.2877 -41.0369
rfingers 7.12502
rthumb -11.3167 -70.7115
lclavicle 1.11319e-014 1.74931e-014
lhumerus -31.2513 1.48282 85.3444
lradius 31.4586
lwrist -18.3217
lhand -26.1667 14.2359
lfingers 7.12502
lthumb 0.384752 44.2153
rfemur -34.5393 -3.27077 25.2409
rtibia 47.1787
rfoot -19.488 -4.86794
rtoes -11.3674
lfemur -28.8869 7.24184 -24.5263
ltibia 73.6003
lfoot 2.7482 3.27132
ltoes -17.7645
262
root -9.71891 17.3072 2.14707 -99.5314 -90.9633 108.61
lowerback 22.5064 -1.37888 7.1328
upperback 6.38962 -0.586131 1.61205
thorax -5.55404 -0.519912 -2.14398
lowerneck 2.73037 9.18002 10.5516
upperneck -3.76746 12.2826 -16.8803
head 0.205008 6.31344 -6.71304
rclavicle 5.96354e-015 -7.95139e-015
rhumerus -22.1181 13.4975 -81.9678
rradius 75.4359
rwrist 26.4926
rhand -39.1103 -41.1336
rfingers 7.12502
rthumb -12.11 -70.7632
lclavicle 5.96354e-015 -7.95139e-015
lhumerus -35.8756 6.07793 83.4619
lradius 29.3149
lwrist -21.7293
lhand -25.6633 15.1372
lfingers 7.12502
lthumb 0.870965 45.1152
rfemur -32.2969 -2.9222 26.8313
rtibia 46.7699
rfoot -19.3653 -5.3024
rtoes -14.1628
lfemur -30.7143 6.65718 -22.4281
ltibia 79.0889
lfoot 2.44217 3.13159
ltoes -17.9096
263
root -9.74546 17.2474 2.16059 -80.0623 -93.458 87.4309
lowerback 24.158 -1.18649 9.5819
upperback 6.8362 0.307138 2.26121
thorax -5.76371 -0.141911 -3.05517
lowerneck 2.68661 9.07597 10.5111
upperneck -3.84227 12.1286 -16.8843
head 0.167098 6.23667 -6.71545
rclavicle 5.1684e-015 7.95139e-016
rhumerus -18.21 13.9117 -80.566
rradius 77.3083
rwrist 29.1087
rhand -38.5205 -41.1365
rfingers 7.12502
rthumb -11.5412 -70.7988
lclavicle 5.1684e-015 7.95139e-016
lhumerus -41.0918 10.3652 80.4458
lradius 27.7622
lwrist -26.0117
lhand -25.8762 15.0033
lfingers 7.12502
lthumb 0.665284 44.982
rfemur -30.0694 -2.4796 29.5585
rtibia 46.419
rfoot -19.3369 -5.74436
rtoes -17.3158
lfemur -32.721 6.2912 -19.0907
ltibia 84.1873
lfoot 0.474477 2.18863
ltoes -20.2459
264
root -9.76794 17.1996 2.18819 -80.0055 -96.7524 85.9107
lowerback 25.693 -1.24726 12.9922
upperback 7.20024 1.17385 3.01632
thorax -5.88026 0.209089 -4.38381
lowerneck 2.80433 9.00297 10.4791
upperneck -4.11548 12.0108 -16.7955
head 0.0444194 6.18807 -6.70396
rclavicle 1.51076e-014 4.45278e-014
rhumerus -14.1294 13.891 -78.9407
rradius 78.5821
rwrist 31.5061
rhand -38.4638 -41.7464
rfingers 7.12502
rthumb -11.4866 -71.4117
lclavicle 1.51076e-014 4.45278e-014
lhumerus -46.5146 13.6648 76.7525
lradius 26.4963
lwrist -30.4608
lhand -26.3805 14.507
lfingers 7.12502
lthumb 0.17822 44.4866
rfemur -28.0227 -2.37305 33.0848
rtibia 45.9502
rfoot -19.4948 -5.45014
rtoes -13.5439
lfemur -35.1608 5.83895 -14.8525
ltibia 88.7193
lfoot -1.25726 0.964351
ltoes -19.779
